<svg width="32" height="32" viewBox="0 0 32 32" fill="none" xmlns="http://www.w3.org/2000/svg">
<path d="M4.8002 1.60001C3.91654 1.60001 3.2002 2.31635 3.2002 3.20001C3.2002 4.08366 3.91654 4.80001 4.8002 4.80001H6.75095L7.23985 6.75559C7.24498 6.77821 7.25059 6.80063 7.25667 6.82287L9.42824 15.5091L8.00012 16.9373C5.98423 18.9531 7.41196 22.4 10.2629 22.4H24.0001C24.8838 22.4 25.6001 21.6837 25.6001 20.8C25.6001 19.9163 24.8838 19.2 24.0001 19.2L10.2629 19.2L11.8629 17.6H22.4002C23.0062 17.6 23.5602 17.2576 23.8313 16.7155L28.6313 7.11555C28.8793 6.61957 28.8528 6.03054 28.5612 5.55884C28.2697 5.08713 27.7547 4.80001 27.2002 4.80001H10.0494L9.55242 2.81195C9.37436 2.09968 8.73438 1.60001 8.0002 1.60001H4.8002Z" fill="#026295"/>
<path d="M25.6002 26.4C25.6002 27.7255 24.5257 28.8 23.2002 28.8C21.8747 28.8 20.8002 27.7255 20.8002 26.4C20.8002 25.0745 21.8747 24 23.2002 24C24.5257 24 25.6002 25.0745 25.6002 26.4Z" fill="#026295"/>
<path d="M10.4002 28.8C11.7257 28.8 12.8002 27.7255 12.8002 26.4C12.8002 25.0745 11.7257 24 10.4002 24C9.07471 24 8.0002 25.0745 8.0002 26.4C8.0002 27.7255 9.07471 28.8 10.4002 28.8Z" fill="#026295"/>
</svg>
