<svg width="30" height="30" viewBox="0 0 30 30" fill="none" xmlns="http://www.w3.org/2000/svg">
<path d="M19.8001 10.2H10.2001V19.8H19.8001V10.2Z" fill="#026295"/>
<path fill-rule="evenodd" clip-rule="evenodd" d="M10.2001 2.2C10.2001 1.31634 10.9164 0.599998 11.8001 0.599998C12.6838 0.599998 13.4001 1.31634 13.4001 2.2V3.8H16.6001V2.2C16.6001 1.31634 17.3164 0.599998 18.2001 0.599998C19.0838 0.599998 19.8001 1.31634 19.8001 2.2V3.8H23.0001C24.7674 3.8 26.2001 5.23269 26.2001 7V10.2H27.8001C28.6838 10.2 29.4001 10.9163 29.4001 11.8C29.4001 12.6837 28.6838 13.4 27.8001 13.4H26.2001V16.6H27.8001C28.6838 16.6 29.4001 17.3163 29.4001 18.2C29.4001 19.0837 28.6838 19.8 27.8001 19.8H26.2001V23C26.2001 24.7673 24.7674 26.2 23.0001 26.2H19.8001V27.8C19.8001 28.6837 19.0838 29.4 18.2001 29.4C17.3164 29.4 16.6001 28.6837 16.6001 27.8V26.2H13.4001V27.8C13.4001 28.6837 12.6838 29.4 11.8001 29.4C10.9164 29.4 10.2001 28.6837 10.2001 27.8V26.2H7.0001C5.23279 26.2 3.8001 24.7673 3.8001 23V19.8H2.2001C1.31644 19.8 0.600098 19.0837 0.600098 18.2C0.600098 17.3163 1.31644 16.6 2.2001 16.6H3.8001V13.4H2.2001C1.31644 13.4 0.600098 12.6837 0.600098 11.8C0.600098 10.9163 1.31644 10.2 2.2001 10.2H3.8001V7C3.8001 5.23269 5.23279 3.8 7.0001 3.8H10.2001V2.2ZM7.0001 7H23.0001V23H7.0001V7Z" fill="#026295"/>
</svg>
