<svg width="1512" height="1103" viewBox="0 0 1512 1103" fill="none" xmlns="http://www.w3.org/2000/svg">
<mask id="mask0_74_3561" style="mask-type:luminance" maskUnits="userSpaceOnUse" x="-37" y="102" width="1953" height="845">
<path d="M-36.4309 424.321L1713.85 102.598L1915.08 625.142L164.792 946.865L-36.4309 424.321Z" fill="white"/>
</mask>
<g mask="url(#mask0_74_3561)">
<path d="M166.351 946.599L165.255 944.416C429.945 869.376 663.508 684.097 822.918 422.712C903.406 290.733 1009.51 216.032 1114.03 217.781C1127.12 217.998 1140.06 219.448 1152.71 222.086C1241.91 174.218 1367.87 172.293 1465.75 180.864C1597.92 192.442 1724.48 226.925 1768.4 246.59L1767.5 248.595C1723.78 229.024 1597.68 194.68 1465.86 183.136C1369.17 174.667 1245.01 176.458 1156.47 222.908C1201.45 233.14 1242.81 258.371 1275.84 296.305C1328.41 356.692 1343.32 422.809 1316.75 477.698C1295.68 521.199 1250.44 548.269 1201.51 546.648C1153.07 545.044 1080.81 508.658 1048.55 452.672C1024.25 410.515 1014.01 342.429 1103.19 257.462C1116.98 244.328 1132.62 233.178 1149.66 223.741C1138.09 221.503 1126.29 220.258 1114.35 220.063C1010.7 218.334 905.33 292.665 825.236 424.001C749.418 548.312 657.564 655.426 552.216 742.368C436.074 838.225 306.245 906.937 166.351 946.599ZM1153.46 224.514C1135.71 234.113 1119.45 245.567 1105.2 259.14C1016.92 343.245 1026.9 410.377 1050.82 451.879C1084.36 510.09 1159.73 542.991 1201.24 544.367C1249.24 545.958 1293.63 519.337 1314.35 476.561C1340.56 422.429 1325.81 357.171 1273.88 297.526C1240.63 259.339 1198.83 234.198 1153.46 224.514Z" fill="#026295" fill-opacity="0.03"/>
</g>
<mask id="mask1_74_3561" style="mask-type:luminance" maskUnits="userSpaceOnUse" x="-36" y="104" width="1941" height="813">
<path d="M-35.6516 428.789L1717.82 104.904L1904.76 592.461L151.286 916.345L-35.6516 428.789Z" fill="white"/>
</mask>
<g mask="url(#mask1_74_3561)">
<path d="M152.379 914.991L151.305 912.794C435.153 834.871 674.469 663.21 825.163 429.437C869.08 360.721 918.554 308.191 972.201 273.308C1021.3 241.375 1073.53 225.22 1123.22 226.588C1132.92 226.858 1142.47 227.756 1151.83 229.275C1240.98 176.952 1369.04 173.243 1467.99 180.916C1609.35 191.875 1732.53 227.679 1770.04 243.3L1769.22 245.349C1731.87 229.797 1609.12 194.132 1468.13 183.197C1370.42 175.624 1244.21 179.161 1155.7 229.944C1204.59 238.832 1248.46 264.821 1283.96 306.257C1334.96 365.712 1348.76 430.355 1321.83 483.603C1299.6 527.55 1252.65 554.204 1202.21 551.514C1154.6 548.973 1084.09 512.243 1053.2 457.33C1029.59 415.365 1019.95 347.456 1108.09 262.275C1120.33 250.378 1134.02 240.042 1148.81 231.08C1140.51 229.847 1132.07 229.109 1123.51 228.88C1019.21 226.008 911.299 299.596 827.457 430.768C676.494 664.958 436.748 836.922 152.379 914.991ZM1152.69 231.692C1137.17 240.881 1122.85 251.565 1110.11 263.947C1022.85 348.276 1032.24 415.238 1055.48 456.558C1085.89 510.588 1155.2 546.734 1202 549.229C1251.49 551.869 1297.58 525.648 1319.44 482.437C1345.99 429.944 1332.33 366.176 1281.99 307.475C1246.27 265.794 1202.02 239.963 1152.69 231.692Z" fill="#026295" fill-opacity="0.03"/>
</g>
<mask id="mask2_74_3561" style="mask-type:luminance" maskUnits="userSpaceOnUse" x="-35" y="107" width="1929" height="778">
<path d="M-34.8723 433.583L1722 107.211L1893.85 557.684L136.972 884.056L-34.8723 433.583Z" fill="white"/>
</mask>
<g mask="url(#mask2_74_3561)">
<path d="M138.366 883.378L137.32 881.166C448.073 798.915 686.696 645.096 827.397 436.341C873.646 367.72 924.926 315.453 979.811 280.991C1030.16 249.377 1083.21 233.71 1133.21 235.695C1139.17 235.928 1145.06 236.404 1150.89 237.113C1240.07 180.035 1370.38 174.418 1470.41 181.107C1601.83 189.898 1724.97 221.895 1771.7 240L1770.96 242.094C1724.39 224.057 1601.66 192.171 1470.58 183.4C1371.81 176.796 1243.4 182.23 1154.82 237.629C1207.59 245.066 1254.71 271.994 1292.11 316.348C1341.57 374.919 1354.3 438.143 1327.03 489.807C1303.6 534.192 1254.88 560.39 1202.88 556.551C1156.25 553.1 1087.65 516.163 1058.14 462.49C1035.16 420.705 1026.02 352.901 1112.99 267.177C1123.65 256.677 1135.36 247.338 1147.91 239.05C1143.14 238.536 1138.32 238.184 1133.46 237.994C1083.99 236.032 1031.44 251.572 981.498 282.93C926.853 317.243 875.775 369.319 829.672 437.715C754.492 549.261 652.218 645.079 525.692 722.521C414.233 790.736 283.919 844.852 138.366 883.378ZM1151.86 239.515C1138.57 248.087 1126.21 257.822 1115.02 268.844C1028.91 353.72 1037.81 420.586 1060.44 461.727C1089.47 514.529 1156.91 550.868 1202.74 554.26C1253.76 558.038 1301.62 532.26 1324.66 488.606C1351.52 437.704 1338.93 375.36 1290.11 317.554C1252.53 272.993 1205.03 246.261 1151.86 239.515Z" fill="#026295" fill-opacity="0.03"/>
</g>
<mask id="mask3_74_3561" style="mask-type:luminance" maskUnits="userSpaceOnUse" x="-35" y="108" width="1919" height="745">
<path d="M-34.4814 437.273L1725.6 108.364L1883.33 524.011L123.243 852.919L-34.4814 437.273Z" fill="white"/>
</mask>
<g mask="url(#mask3_74_3561)">
<path d="M124.331 851.767L123.311 849.534C361.324 789.112 656.709 688.351 829.641 443.455C878.038 374.915 931.016 322.888 987.099 288.825C1038.64 257.522 1092.48 242.329 1142.81 244.891C1145.24 245.011 1147.66 245.172 1150.06 245.379C1239.14 183.253 1371.69 175.604 1472.78 181.265C1600.16 188.416 1722.35 218.335 1773.4 236.708L1772.72 238.837C1737.52 226.166 1615.04 191.548 1472.98 183.58C1373.15 177.98 1242.55 185.404 1154.04 245.752C1210.72 251.57 1261.09 279.367 1300.27 326.627C1348.26 384.357 1359.96 446.219 1332.36 496.362C1308.06 540.506 1256.29 566.805 1203.54 561.797C1164.11 558.055 1094.41 526.385 1062.93 467.696C1040.61 426.066 1032.03 358.355 1117.93 272.211C1126.96 263.152 1136.75 254.913 1147.14 247.45C1145.77 247.352 1144.4 247.272 1143.03 247.202C1093.22 244.659 1039.88 259.742 988.754 290.796C932.914 324.714 880.134 376.555 831.891 444.873C658.574 690.31 362.721 791.252 124.331 851.767ZM1151.12 247.765C1140 255.58 1129.57 264.255 1119.98 273.876C1034.92 359.173 1043.27 425.95 1065.26 466.947C1096.21 524.669 1164.71 555.816 1203.46 559.493C1255.25 564.41 1306.09 538.538 1329.99 495.114C1357.17 445.751 1345.6 384.771 1298.26 327.827C1258.93 280.384 1208.2 252.82 1151.12 247.765Z" fill="#026295" fill-opacity="0.03"/>
</g>
<mask id="mask4_74_3561" style="mask-type:luminance" maskUnits="userSpaceOnUse" x="-34" y="110" width="1907" height="711">
<path d="M-33.7021 442.556L1729.84 110.67L1872.41 488.743L108.866 820.629L-33.7021 442.556Z" fill="white"/>
</mask>
<g mask="url(#mask4_74_3561)">
<path d="M110.297 820.16L109.311 817.909L120.784 815.134C360.546 757.176 658.938 685.048 831.882 450.815C882.441 382.34 937.119 330.544 994.391 296.868C1046.06 266.495 1099.56 251.742 1149.35 254.115C1184 227.771 1227.95 208.295 1280.46 196.07C1336.2 183.09 1401.71 178.18 1475.16 181.483C1607.13 187.411 1729.07 218.055 1775.11 233.431L1774.5 235.599C1728.61 220.273 1607.02 189.722 1475.39 183.804C1374.56 179.271 1241.79 188.819 1153.39 254.347C1214 258.37 1267.6 286.975 1308.46 337.107C1355.01 394.039 1365.7 454.611 1337.78 503.28C1312.2 547.868 1258.51 573.589 1204.19 567.263C1165.6 562.777 1097.75 530.605 1067.73 473.131C1046.06 431.635 1038.05 363.995 1122.89 277.396C1130.19 269.953 1138.06 262.922 1146.5 256.316C1098.1 254.708 1046.21 269.351 996.017 298.865C938.985 332.402 884.513 384.015 834.113 452.276C756.883 556.871 649.162 638.129 504.781 700.702C379.035 755.2 242.362 788.236 121.77 817.384L110.297 820.16ZM1150.55 256.481C1141.5 263.389 1132.94 270.894 1124.95 279.052C1040.93 364.813 1048.72 431.523 1070.07 472.392C1099.58 528.917 1166.26 560.55 1204.17 564.958C1257.52 571.151 1310.27 545.862 1335.43 502.002C1362.9 454.104 1352.33 394.437 1306.43 338.295C1265.91 288.575 1212.71 260.327 1152.59 256.602C1151.91 256.558 1151.23 256.519 1150.55 256.481Z" fill="#026295" fill-opacity="0.03"/>
</g>
<path d="M1242.54 541.21C1226.89 544.539 1210.75 545.757 1194.79 544.574C1151.25 541.339 1092.8 513.352 1070.24 467.858C1052.64 432.346 1050.76 373.026 1141.78 292.09C1148.01 286.545 1154.57 281.204 1161.41 276.091C1115.17 278.261 1066.04 292.882 1015.14 319.67C954.174 351.76 893.741 399.856 835.539 462.625C756.759 547.576 653.516 614.157 519.887 666.171C403.374 711.527 278.87 739.925 169.017 764.983C133.75 773.025 100.447 780.625 68.1613 788.55L67.3948 786.589C99.7033 778.659 133.025 771.059 168.302 763.011C397.453 710.747 657.174 651.503 833.447 461.409C891.835 398.451 952.485 350.187 1013.71 317.96C1066.13 290.371 1116.74 275.585 1164.36 273.915C1240.55 218.338 1353.23 188.792 1499.89 186.004C1625.95 183.609 1744.86 202.638 1795.26 214.262L1794.53 216.233C1675.83 188.858 1343.56 149.33 1168.44 273.805C1171.46 273.748 1174.48 273.739 1177.47 273.789C1237.88 274.76 1288.98 297.791 1325.24 340.383C1365.77 387.793 1370.59 439.705 1338.46 482.79C1316.67 512.008 1281.14 533.01 1242.54 541.21ZM1165.49 275.929C1157.92 281.448 1150.64 287.292 1143.71 293.457C1053.56 373.613 1055.31 432.131 1072.65 467.11C1096.2 514.605 1158.39 539.806 1195.03 542.529C1249.36 546.569 1306.11 522.141 1336.24 481.746C1367.84 439.368 1363.05 388.26 1323.1 341.533C1287.33 299.517 1236.96 276.796 1177.42 275.841C1173.47 275.774 1169.49 275.804 1165.49 275.929Z" fill="#026295" fill-opacity="0.03"/>
<path d="M1245.3 544.027C1228.17 547.666 1210.53 548.88 1193.35 547.252C1150.99 543.247 1094.44 515.065 1073.06 470.726C1056.07 435.464 1054.65 376.471 1144.41 295.658C1148.97 291.557 1153.68 287.568 1158.55 283.699C1114.81 286.878 1068.36 300.897 1020.07 325.523C958.096 357.131 896.167 404.816 835.999 467.264C760.305 545.833 661.892 605.406 535.15 649.381C424.764 687.69 307.621 709.073 204.265 727.928C151.983 737.47 102.594 746.488 57.4514 756.937L56.7304 754.965C101.946 744.501 151.358 735.478 203.687 725.931C409.02 688.447 664.566 641.822 833.944 466.015C894.294 403.384 956.441 355.532 1018.67 323.797C1068.45 298.41 1116.36 284.207 1161.41 281.449C1237.53 222.335 1351.14 190.225 1499.6 185.935C1645.14 181.724 1770.49 206.13 1794.15 211.061L1793.49 213.045C1775.71 209.334 1368.39 126.682 1165.43 281.229C1171.76 280.935 1178.05 280.871 1184.26 281.032C1244.28 282.604 1294.82 305.877 1330.42 348.344C1369.69 394.938 1373.74 445.554 1341.54 487.206C1319.78 515.34 1283.86 535.832 1245.3 544.027ZM1162.57 283.435C1157 287.774 1151.59 292.304 1146.36 297.012C1057.45 377.056 1058.75 435.263 1075.48 469.994C1096.5 513.581 1152.05 541.283 1193.66 545.216C1248.53 550.402 1308.43 526.104 1339.33 486.13C1370.98 445.189 1366.95 395.378 1328.27 349.482C1293.15 307.59 1243.32 284.633 1184.18 283.082C1177.06 282.896 1169.85 283.017 1162.57 283.435Z" fill="#026295" fill-opacity="0.03"/>
<path d="M1249.25 546.951C1230.38 550.958 1210.85 552.114 1191.91 549.933C1150.76 545.198 1096.11 516.845 1075.88 473.633C1059.49 438.615 1058.53 379.93 1147.06 299.223C1149.96 296.579 1152.92 293.987 1155.94 291.437C1114.6 295.409 1070.72 308.793 1024.99 331.392C962.019 362.516 898.592 409.791 836.47 471.915C668.511 639.868 419.127 672.414 218.739 698.565C156.35 706.709 97.4913 714.451 46.7531 725.335L46.0719 723.356C96.9099 712.407 155.862 704.688 218.317 696.54C418.267 670.448 667.104 637.975 834.443 470.641C896.753 408.332 960.401 360.9 1023.62 329.654C1070.81 306.334 1116.11 292.752 1158.72 289.123C1234.74 226.442 1349.2 191.728 1499.3 185.863C1635.06 180.568 1758.46 201.372 1793.04 207.873L1792.44 209.873C1718.97 196.053 1350.74 136.539 1162.71 288.812C1172.29 288.129 1181.73 287.959 1191.02 288.293C1250.65 290.445 1300.64 313.964 1335.61 356.31C1387.69 419.03 1363.64 468.103 1344.68 491.773C1322.77 519.094 1287.4 538.842 1249.25 546.951ZM1159.93 291.082C1156.22 294.16 1152.58 297.317 1149.02 300.57C1061.32 380.516 1062.16 438.42 1078.31 472.92C1098.19 515.385 1151.87 543.249 1192.28 547.903C1248.52 554.377 1310.29 530.842 1342.49 490.663C1361.13 467.416 1384.73 419.19 1333.45 357.426C1298.95 315.655 1249.66 292.454 1190.91 290.334C1180.76 289.97 1170.43 290.219 1159.93 291.082Z" fill="#026295" fill-opacity="0.03"/>
<path d="M1252.62 549.88C1232.04 554.252 1210.73 555.374 1190.48 552.612C1157.37 548.101 1100.27 524.126 1078.68 476.567C1062.89 441.779 1062.39 383.393 1149.71 302.789C1151.01 301.591 1152.31 300.411 1153.63 299.233C1055.86 310.543 945.16 372.19 836.941 476.556C743.154 567.002 625.014 613.022 504.418 638.639C407.871 659.152 309.765 666.584 221.252 673.296C152.827 678.484 88.2026 683.385 36.0445 693.726L35.4143 691.735C87.7672 681.358 152.487 676.451 221.006 671.253C419.596 656.198 666.751 637.456 834.949 475.255C944.687 369.423 1057.11 307.337 1156.32 296.871C1232.23 230.621 1347.45 193.258 1498.99 185.784C1620.74 179.777 1734.79 195.045 1791.94 204.68L1791.4 206.687C1687.16 189.108 1337.72 144.534 1160.28 296.478C1173.01 295.309 1185.51 294.997 1197.75 295.558C1256.99 298.28 1306.45 322.038 1340.8 364.265C1391.27 425.965 1366.9 473.581 1347.88 496.476C1326.11 522.667 1290.61 541.811 1252.62 549.88ZM1157.6 298.801C1155.6 300.547 1153.62 302.329 1151.67 304.124C1065.17 383.976 1065.55 441.6 1081.12 475.876C1102.33 522.606 1158.4 546.163 1190.92 550.593C1247.6 558.319 1312.7 535.079 1345.71 495.347C1364.39 472.869 1388.3 426.1 1338.62 365.38C1304.74 323.725 1255.98 300.287 1197.59 297.606C1184.55 297.006 1171.19 297.415 1157.6 298.801Z" fill="#026295" fill-opacity="0.03"/>
<path d="M1257.07 552.999C1234.59 557.775 1211.17 558.79 1189.03 555.295C1156.95 550.231 1101.84 525.877 1081.47 479.544C1066.31 445.084 1066.22 387.233 1151.54 307.122C1055.18 320.065 945.711 380.382 837.407 481.198C761.093 552.237 662.576 599.013 536.213 624.165C427.042 645.907 314.942 648.171 216.04 650.166C141.202 651.68 76.5634 652.988 25.3244 662.119L24.7567 660.116C76.2432 650.941 140.998 649.633 215.975 648.118C415.767 644.082 664.426 639.065 835.441 479.868C945.237 377.663 1056.41 316.91 1154.13 304.713C1315.65 155.976 1622.12 176.131 1790.83 201.486L1790.35 203.501C1622.87 178.333 1319.25 158.243 1158.07 304.244C1173.91 302.476 1189.38 301.99 1204.44 302.834C1263.3 306.108 1312.25 330.102 1345.98 372.226C1394.91 432.942 1370.21 479.17 1351.13 501.323C1329.29 526.675 1294.49 545.051 1257.07 552.999ZM1155.47 306.615C1155.09 306.972 1154.71 307.323 1154.32 307.68C1068.99 387.452 1068.93 444.804 1083.91 478.871C1103.92 524.393 1158.04 548.311 1189.54 553.284C1247.54 562.435 1314.6 540.103 1348.99 500.165C1367.71 478.431 1391.92 433.055 1343.79 373.328C1310.52 331.773 1262.27 308.109 1204.25 304.877C1188.45 304 1172.15 304.592 1155.47 306.615Z" fill="#026295" fill-opacity="0.03"/>
<mask id="mask5_74_3561" style="mask-type:luminance" maskUnits="userSpaceOnUse" x="-31" y="119" width="1900" height="691">
<path d="M-30.584 453.711L1735.05 119.896L1868.51 475.282L102.878 809.097L-30.584 453.711Z" fill="white"/>
</mask>
<g mask="url(#mask5_74_3561)">
<path d="M1271.63 587.638C1247.59 592.188 1221.95 591.746 1197.39 585.496C1159.44 575.843 1108.56 543.136 1086.54 494.146C1069.03 455.169 1063.83 391.455 1136.43 307.552C1042.37 318.587 939.149 379.623 839.602 484.268C767.762 559.78 670.556 603.658 542.4 618.394C432.084 631.076 318.42 620.274 218.135 610.746C141.438 603.456 75.202 597.163 26.9516 603.073L26.2621 600.758C74.811 594.815 141.191 601.125 218.054 608.428C411.494 626.811 676.412 651.978 837.522 482.618C938.452 376.525 1043.27 315.12 1138.73 304.912C1139.58 303.95 1140.44 302.985 1141.31 302.019C1210.63 224.723 1322.63 183.605 1474.19 179.818C1588.59 176.961 1696.57 195.855 1767.82 210.316L1767.59 212.593C1388.24 135.6 1218.78 219.596 1143.42 303.618C1143.15 303.926 1142.88 304.221 1142.61 304.528C1161.36 302.789 1179.72 303.048 1197.61 305.339C1256.69 312.908 1307.59 343.095 1344.8 392.643C1384.27 444.905 1389.65 495.838 1359.96 536.061C1340.33 562.671 1307.8 580.799 1271.63 587.638ZM1140.31 307.124C1066.57 391.238 1071.54 454.827 1088.95 493.541C1110.58 541.663 1160.52 573.779 1197.78 583.256C1258.29 598.652 1325.56 578.187 1357.73 534.599C1386.85 495.153 1381.51 445.142 1342.71 393.762C1306 344.882 1255.82 315.105 1197.6 307.647C1178.99 305.269 1159.85 305.112 1140.31 307.124Z" fill="#026295" fill-opacity="0.03"/>
</g>
<mask id="mask6_74_3561" style="mask-type:luminance" maskUnits="userSpaceOnUse" x="-31" y="121" width="1901" height="692">
<path d="M-30.1956 454.644L1735.21 121.049L1869.68 478.962L104.279 812.557L-30.1956 454.644Z" fill="white"/>
</mask>
<g mask="url(#mask6_74_3561)">
<path d="M1275.92 591.07C1249.88 595.991 1222.01 595.312 1195.94 588.037C1159.2 577.784 1110.18 545.039 1089.33 497.374C1072.72 459.4 1067.86 397.67 1135.22 316.199C1042.43 328.672 940.126 388.231 840.283 489.171C777.567 552.582 700.049 586.249 617.207 601.908C478.817 628.069 325.487 603.984 200.921 584.422C124.258 572.385 58.0439 561.986 13.0994 566.109L12.4956 563.785C57.7946 559.634 124.168 570.059 201.028 582.125C399.596 613.303 671.557 656.001 838.234 487.493C939.445 385.176 1043.35 325.238 1137.46 313.511C1139.58 310.995 1141.76 308.467 1144.02 305.909C1213.25 227.602 1324.11 185.064 1473.51 179.465C1595.61 174.895 1710.72 196.182 1766.05 206.413L1765.86 208.696C1652.7 187.771 1308.3 124.082 1146.14 307.506C1144.5 309.364 1142.89 311.221 1141.32 313.059C1163.02 310.657 1184.17 310.84 1204.66 313.682C1263.42 321.831 1313.84 352.243 1350.46 401.638C1388.79 453.067 1393.43 502.805 1363.5 541.692C1344.03 566.978 1311.7 584.309 1275.92 591.07ZM1139.09 315.702C1070.58 397.418 1075.23 459.054 1091.74 496.791C1112.21 543.598 1160.33 575.75 1196.39 585.813C1257.3 602.816 1328.18 583.203 1361.29 540.199C1390.62 502.094 1386.03 453.284 1348.35 402.742C1312.23 354.017 1262.52 324.017 1204.61 315.99C1183.46 313.057 1161.55 312.988 1139.09 315.702Z" fill="#026295" fill-opacity="0.03"/>
</g>
<mask id="mask7_74_3561" style="mask-type:luminance" maskUnits="userSpaceOnUse" x="-30" y="122" width="1902" height="696">
<path d="M-29.8047 455.47L1735.25 122.202L1871.24 483.902L106.187 817.17L-29.8047 455.47Z" fill="white"/>
</mask>
<g mask="url(#mask7_74_3561)">
<path d="M1281.01 594.883C1252.92 600.187 1222.6 599.103 1194.46 590.537C1167.08 582.204 1114.71 553.888 1092.07 500.622C1076.35 463.635 1071.81 403.874 1134.21 324.832C1042.52 338.474 941.057 396.625 840.955 494.035C763.87 569.041 659.034 605.57 520.439 605.692C402.183 605.796 279.083 578.942 180.166 557.364C105.084 540.987 40.2342 526.839 -0.7491 529.137L-1.25977 526.808C40.1194 524.497 105.151 538.682 180.449 555.107C385.211 599.777 665.647 660.945 838.932 492.331C940.389 393.608 1043.42 335.115 1136.37 322.121C1139.64 318.066 1143.08 313.957 1146.7 309.8C1215.27 231.124 1323.77 187.226 1469.18 179.307C1587.64 172.864 1700.18 191.768 1760.66 201.93L1764.22 202.526L1764.08 204.821L1760.52 204.219C1636.87 183.45 1308.42 128.272 1148.84 311.384C1145.83 314.827 1142.96 318.24 1140.2 321.614C1164.82 318.497 1188.69 318.607 1211.64 322.029C1270.09 330.741 1320.04 361.377 1356.08 410.617C1393.34 461.257 1397.24 509.856 1367.05 547.456C1347.53 571.753 1316.01 588.276 1281.01 594.883ZM1138.04 324.281C1074.51 403.604 1078.86 463.289 1094.49 500.06C1116.73 552.362 1168.12 580.155 1194.98 588.335C1257.21 607.278 1330.24 589.049 1364.86 545.927C1394.43 509.101 1390.55 461.432 1353.96 411.696C1318.41 363.125 1269.17 332.907 1211.56 324.319C1187.98 320.809 1163.39 320.835 1138.04 324.281Z" fill="#026295" fill-opacity="0.03"/>
</g>
<mask id="mask8_74_3561" style="mask-type:luminance" maskUnits="userSpaceOnUse" x="-30" y="122" width="1903" height="700">
<path d="M-29.8047 455.039L1734.78 122.202L1872.8 488.946L108.211 821.783L-29.8047 455.039Z" fill="white"/>
</mask>
<g mask="url(#mask8_74_3561)">
<path d="M1285.87 598.556C1255.57 604.273 1222.68 602.872 1192.99 593.062C1157.59 581.363 1113.5 549.268 1094.8 503.932C1079.94 467.924 1075.72 410.098 1133.45 333.47C1042.79 348.129 942.001 404.84 841.634 498.922C787.675 549.499 723.031 577.638 653.587 590.747C488.967 621.814 297.272 568.4 156.252 529.118C81.2435 508.223 21.9923 491.712 -14.6127 492.219L-15.004 489.891C22.023 489.377 81.46 505.936 156.703 526.897C356.62 582.591 658.734 666.754 839.637 497.191C941.332 401.87 1043.61 344.793 1135.53 330.737C1139.81 325.158 1144.43 319.47 1149.39 313.697C1217.21 234.748 1323.22 189.53 1464.48 179.295C1580.26 170.911 1693.61 188.181 1754.5 197.453L1762.4 198.659L1762.32 200.955L1754.41 199.75C1632.61 181.201 1309.05 131.906 1151.54 315.271C1147.25 320.256 1143.18 325.228 1139.32 330.176C1166.8 326.326 1193.31 326.351 1218.6 330.38C1276.76 339.648 1326.25 370.495 1361.71 419.596C1397.94 469.488 1401.11 517.004 1370.63 553.392C1351.39 576.373 1320.3 592.06 1285.87 598.556ZM1137.25 332.881C1090.29 394.359 1076.44 452.983 1097.23 503.401C1115.59 547.907 1158.85 579.406 1193.58 590.886C1256.03 611.52 1332.86 594.371 1368.48 551.836C1398.31 516.226 1395.15 469.642 1359.58 420.67C1324.6 372.235 1275.81 341.811 1218.49 332.67C1192.63 328.554 1165.43 328.67 1137.25 332.881Z" fill="#026295" fill-opacity="0.03"/>
</g>
<mask id="mask9_74_3561" style="mask-type:luminance" maskUnits="userSpaceOnUse" x="-31" y="121" width="1906" height="706">
<path d="M-30.1956 453.354L1733.81 121.049L1874.36 494.09L110.349 826.395L-30.1956 453.354Z" fill="white"/>
</mask>
<g mask="url(#mask9_74_3561)">
<path d="M1291.36 602.897C1258.92 609.008 1223.38 607.074 1191.62 595.728C1160.02 584.446 1116.45 554.564 1097.61 507.497C1083.6 472.463 1079.68 416.547 1133 342.367C1043.2 357.807 943.058 413.122 842.464 503.979C758.419 579.883 643.272 608.647 490.433 591.903C361.461 577.777 232.913 534.245 129.615 499.27C59.3012 475.459 3.76101 456.652 -28.1721 455.486L-28.4256 453.163C3.95595 454.343 59.682 473.215 130.234 497.103C337.587 567.318 650.955 673.429 840.495 502.229C942.393 410.181 1043.97 354.498 1135 339.619C1140.18 332.543 1145.89 325.315 1152.15 317.913C1308.74 133.037 1617.25 175.512 1748.99 193.649L1760.53 195.235L1760.49 197.536L1748.94 195.952C1617.63 177.874 1310.1 135.531 1154.3 319.47C1148.75 326.019 1143.57 332.538 1138.75 339.023C1169.02 334.425 1198.08 334.376 1225.58 339.038C1283.44 348.849 1332.47 379.902 1367.38 428.84C1402.62 477.993 1405.08 524.458 1374.3 559.661C1355.06 581.669 1324.88 596.582 1291.36 602.897ZM1136.75 341.743C1093.23 401.442 1080.52 458.174 1100.05 506.988C1118.54 553.193 1161.29 582.512 1192.28 593.575C1255.89 616.299 1334.9 600.708 1372.16 558.085C1402.28 523.647 1399.81 478.122 1365.24 429.903C1330.81 381.625 1282.47 350.998 1225.45 341.335C1197.41 336.58 1167.71 336.777 1136.75 341.743Z" fill="#026295" fill-opacity="0.03"/>
</g>
<mask id="mask10_74_3561" style="mask-type:luminance" maskUnits="userSpaceOnUse" x="-42" y="88" width="1918" height="744">
<path d="M-41.1077 417.858L1719.2 88.7597L1875.92 501.91L115.607 831.008L-41.1077 417.858Z" fill="white"/>
</mask>
<g mask="url(#mask10_74_3561)">
<path d="M1297.78 608.717C1263.02 615.222 1224.61 612.851 1191.37 600.094C1161.04 588.453 1119.31 558.705 1101.58 513.166C1083.21 466.011 1094.38 411.487 1133.81 354.036C1133 354.182 1132.21 354.326 1131.4 354.477C1043.12 370.985 944.574 424.385 844.863 510.969C797.084 552.456 741.315 576.339 681.398 587.549C490.438 623.276 256.967 530.349 102.609 468.926C38.653 443.474 -11.87 423.368 -38.9481 420.722L-39.0208 418.422C-11.5096 421.108 39.1955 441.284 103.384 466.831C305.576 547.294 643.972 681.96 842.923 509.206C944.836 420.719 1045.71 366.807 1135.72 351.306C1141.79 342.631 1148.51 333.902 1155.86 325.115C1222.39 245.653 1324.1 198.185 1458.16 184.022C1569.17 172.298 1678.65 185.858 1744.05 193.962C1749.15 194.589 1754 195.189 1758.59 195.75L1758.59 198.042C1754 197.487 1749.15 196.881 1744.05 196.254C1614.77 180.236 1312 142.733 1158.02 326.655C1151.27 334.716 1145.07 342.725 1139.4 350.688C1172.37 345.391 1203.85 345.302 1233.39 350.603C1290.88 360.917 1339.42 392.046 1373.77 440.625C1408.06 488.874 1409.84 534.127 1378.81 568.042C1359.97 588.62 1330.49 602.598 1297.78 608.717ZM1137.49 353.399C1097.29 411.042 1085.7 465.651 1104.02 512.687C1121.42 557.377 1162.35 586.567 1192.1 597.987C1255.65 622.377 1338.46 608.223 1376.7 566.438C1407.04 533.287 1405.24 488.971 1371.63 441.661C1337.74 393.741 1289.88 363.042 1233.22 352.872C1203.19 347.485 1171.11 347.731 1137.49 353.399Z" fill="#026295" fill-opacity="0.03"/>
</g>
<mask id="mask11_74_3561" style="mask-type:luminance" maskUnits="userSpaceOnUse" x="-52" y="57" width="1930" height="779">
<path d="M-51.6318 383.908L1705.13 57.6231L1877.48 509.336L120.716 835.621L-51.6318 383.908Z" fill="white"/>
</mask>
<g mask="url(#mask11_74_3561)">
<path d="M1304.35 614.922C1267.48 621.772 1226.27 618.713 1191.09 604.243C1160.62 591.72 1122.13 562.652 1105.48 518.651C1088.01 472.499 1097.85 421.044 1134.72 365.312C1046.65 381.682 947.881 433.636 847.246 517.715C802.295 555.262 750.266 577.203 694.335 587.593C487.678 625.99 227.518 506.851 72.4577 435.846C16.5605 410.248 -27.5879 390.031 -49.7511 386.199L-49.6077 383.937C-27.0469 387.843 17.2741 408.138 73.3795 433.829C269.838 523.787 635.515 691.234 845.333 515.934C946.258 431.614 1045.44 379.494 1133.98 363.048C1134.83 362.891 1135.69 362.736 1136.54 362.585C1143.33 352.522 1151 342.325 1159.55 331.997C1225.5 252.268 1325.29 203.799 1456.17 187.936C1565.02 174.744 1670.12 186.379 1739.67 194.076C1745.63 194.739 1751.28 195.364 1756.62 195.939L1756.67 198.225C1751.33 197.651 1745.67 197.022 1739.71 196.36C1601.58 181.071 1314.14 149.245 1161.71 333.518C1153.82 343.064 1146.67 352.545 1140.27 361.94C1175.86 355.972 1209.66 355.852 1241.12 361.802C1298.25 372.609 1346.31 403.821 1380.12 452.062C1413.48 499.464 1414.59 543.578 1383.25 576.283C1364.52 595.841 1336.03 609.038 1304.35 614.922ZM1138.45 364.634C1101.35 420.291 1090.77 472.866 1107.92 518.201C1124.26 561.376 1162.01 589.89 1191.89 602.176C1256.33 628.675 1341.25 616.329 1381.19 574.655C1411.81 542.705 1410.66 499.526 1377.98 453.076C1344.63 405.485 1297.24 374.703 1240.93 364.051C1209.04 358.022 1174.66 358.299 1138.45 364.634Z" fill="#026295" fill-opacity="0.03"/>
</g>
<mask id="mask12_74_3561" style="mask-type:luminance" maskUnits="userSpaceOnUse" x="-63" y="25" width="1943" height="816">
<path d="M-62.5471 348.981L1690.59 25.3334L1879.04 516.586L125.898 840.234L-62.5471 348.981Z" fill="white"/>
</mask>
<g mask="url(#mask12_74_3561)">
<path d="M1310.85 621.148C1271.86 628.347 1227.86 624.523 1190.79 608.231C1161.65 595.424 1124.94 566.56 1109.32 523.997C1093.01 479.518 1101.98 429.941 1135.95 376.194C1048.57 392.831 950.339 443.23 849.622 524.264C806.996 558.56 758.088 578.866 705.565 588.569C482.196 629.826 192.995 479.433 38.743 399.23C-8.91805 374.444 -43.3567 356.535 -60.5859 351.917L-60.165 349.729C-42.6035 354.439 -8.0372 372.417 39.8077 397.295C229.782 496.072 625.088 701.606 847.741 522.475C949.505 440.591 1048.88 389.881 1137.23 373.57C1137.38 373.542 1137.53 373.513 1137.68 373.486C1145.08 362.042 1153.59 350.413 1163.24 338.602C1315.06 152.754 1599.26 180.624 1735.84 194.011C1742.46 194.658 1748.75 195.279 1754.67 195.836L1754.77 198.114C1748.83 197.554 1742.53 196.934 1735.92 196.287C1599.78 182.94 1316.49 155.161 1165.41 340.11C1156.36 351.186 1148.31 362.101 1141.26 372.847C1179.46 366.221 1215.53 366.086 1248.83 372.7C1305.6 383.977 1353.2 415.273 1386.47 463.202C1418.93 509.82 1419.36 552.874 1387.68 584.451C1369.05 603.02 1341.49 615.491 1310.85 621.148ZM1139.52 375.53C1104.84 429.511 1095.5 479.179 1111.78 523.576C1127.1 565.342 1163.09 593.643 1191.67 606.201C1256.9 634.875 1343.92 624.373 1385.64 582.794C1416.58 551.966 1416.11 509.843 1384.31 464.19C1351.03 416.237 1305.38 386.205 1248.62 374.926C1214.93 368.242 1178.3 368.533 1139.52 375.53Z" fill="#026295" fill-opacity="0.03"/>
</g>
<mask id="mask13_74_3561" style="mask-type:luminance" maskUnits="userSpaceOnUse" x="-74" y="-6" width="1955" height="852">
<path d="M-73.0703 315.448L1676.49 -5.803L1880.99 524.749L131.427 846L-73.0703 315.448Z" fill="white"/>
</mask>
<g mask="url(#mask13_74_3561)">
<path d="M1317.65 626.908C1276.2 634.527 1228.84 630.071 1190.51 612.102C1162.68 599.054 1127.74 570.432 1113.14 529.246C1097.94 486.376 1106.12 438.591 1137.43 386.747C1050.64 403.547 952.842 452.482 852.013 530.675C749.099 610.475 598.124 618.09 403.279 553.283C242.918 499.949 91.2825 410.975 0.684957 357.808C-34.0776 337.411 -59.1924 322.674 -71.4507 317.859L-70.6926 315.794C-58.2026 320.702 -32.9959 335.494 1.89053 355.965C92.3792 409.065 243.839 497.936 403.88 551.166C597.772 615.652 747.926 608.155 850.16 528.866C952.191 449.745 1051.25 400.492 1139.08 384.057C1146.98 371.276 1156.27 358.248 1166.97 344.985C1232 264.336 1328.47 213.784 1453.76 194.79C1558.76 178.852 1663.36 187.832 1732.57 193.775C1739.66 194.381 1746.42 194.958 1752.79 195.479L1752.92 197.751C1746.54 197.23 1739.78 196.649 1732.69 196.038C1588.14 183.634 1319.07 160.534 1169.14 346.473C1159.04 359.006 1150.19 371.328 1142.6 383.416C1183.3 376.181 1221.54 376.056 1256.53 383.334C1313.77 395.239 1359.62 425.779 1392.82 474.103C1424.43 519.993 1424.18 562.063 1392.1 592.569C1373.95 609.839 1347.31 621.462 1317.65 626.908ZM1140.94 386.087C1108.95 438.168 1100.42 486.051 1115.6 528.86C1129.93 569.264 1164.18 597.327 1191.46 610.117C1256.25 640.497 1347.22 631.694 1390.1 590.901C1421.41 561.118 1421.61 519.984 1390.67 475.075C1357.92 427.403 1312.71 397.284 1256.29 385.548C1221.02 378.213 1182.34 378.483 1141.17 386.045C1141.08 386.061 1141.02 386.073 1140.94 386.087Z" fill="#026295" fill-opacity="0.03"/>
</g>
<mask id="mask14_74_3561" style="mask-type:luminance" maskUnits="userSpaceOnUse" x="-84" y="-37" width="1967" height="888">
<path d="M-83.594 282.192L1662.54 -36.9395L1882.55 531.481L136.408 850.613L-83.594 282.192Z" fill="white"/>
</mask>
<g mask="url(#mask14_74_3561)">
<path d="M1324.06 633.198C1280.48 641.17 1230.2 635.786 1190.18 615.805C1177.32 609.382 1134.02 584.531 1116.87 534.381C1102.73 493.05 1110.21 446.982 1139.09 396.954C1052.79 413.837 955.346 461.357 854.361 536.894C817.134 564.743 773.865 583.158 724.763 592.132C626.984 610.013 506.025 590.468 363.193 533.524C190.243 464.565 32.4136 359.574 -43.4352 309.12C-61.9528 296.799 -75.3422 287.895 -82.3483 283.939L-81.1856 282.08C-74.0803 286.094 -60.6515 295.024 -42.072 307.382C33.6831 357.777 191.323 462.646 363.969 531.476C577.529 616.62 741.907 617.831 852.54 535.077C954.699 458.659 1053.35 410.832 1140.65 394.287C1148.97 380.202 1158.97 365.815 1170.66 351.126C1320.29 163.046 1586.65 182.754 1729.75 193.345C1737.15 193.889 1744.2 194.414 1750.89 194.882L1751.05 197.142C1744.37 196.674 1737.31 196.151 1729.9 195.608C1587.27 185.051 1321.77 165.402 1172.84 352.595C1161.74 366.555 1152.16 380.247 1144.11 393.643C1187.26 385.843 1227.58 385.752 1264.15 393.698C1321.05 406.054 1366.45 436.683 1399.13 484.733C1429.92 529.942 1428.97 571.09 1396.45 600.608C1378.4 616.99 1352.68 627.969 1324.06 633.198ZM1142.53 396.293C1113.02 446.56 1105.21 492.738 1119.33 534.024C1136.15 583.21 1178.59 607.568 1191.2 613.864C1256.52 646.485 1349.61 639.642 1394.47 598.917C1426.2 570.119 1427.08 529.908 1396.95 485.682C1364.73 438.287 1319.95 408.079 1263.87 395.892C1227 387.89 1186.22 388.183 1142.53 396.293Z" fill="#026295" fill-opacity="0.03"/>
</g>
<mask id="mask15_74_3561" style="mask-type:luminance" maskUnits="userSpaceOnUse" x="-95" y="-70" width="1980" height="927">
<path d="M-94.5081 247.842L1648.04 -69.2292L1884.49 539.308L141.946 856.379L-94.5081 247.842Z" fill="white"/>
</mask>
<g mask="url(#mask15_74_3561)">
<path d="M1330.26 639.286C1321.64 640.855 1312.68 641.925 1303.49 642.453C1262.62 644.81 1222.26 636.629 1189.84 619.414C1177.59 612.906 1136.38 587.896 1120.42 539.272C1107.32 499.389 1114.23 454.961 1140.94 406.712C1054.98 423.564 957.812 469.792 856.712 542.99C787.508 592.823 697.063 610.27 587.888 594.846C499.495 582.348 398.485 548.353 287.652 493.786C82.8316 392.954 -86.1823 255.939 -93.2769 250.16L-91.6772 248.607C-84.5955 254.383 84.1495 391.177 288.651 491.857C538.815 615.021 729.335 631.61 854.91 541.166C957.156 467.145 1055.5 420.616 1142.42 404.069C1151.09 388.782 1161.74 373.109 1174.35 357.084C1322.78 167.416 1585.83 183.889 1727.16 192.74C1734.78 193.218 1742.08 193.675 1749.02 194.079L1749.22 196.329C1742.28 195.931 1734.97 195.47 1727.34 194.993C1586.48 186.177 1324.28 169.759 1176.53 358.535C1164.49 373.843 1154.25 388.823 1145.82 403.435C1191.22 395.172 1233.45 395.157 1271.44 403.737C1328.15 416.537 1373.22 447.304 1405.42 495.182C1435.43 539.764 1433.77 580.055 1400.75 608.638C1383.72 623.388 1358.84 634.08 1330.26 639.286ZM1144.33 406.063C1117.02 454.555 1109.8 499.1 1122.88 538.952C1138.54 586.641 1178.93 611.147 1190.94 617.527C1255.53 651.829 1352.66 646.879 1398.82 606.92C1431.01 579.048 1432.59 539.693 1403.24 496.112C1371.49 448.882 1327.05 418.539 1271.15 405.92C1232.87 397.278 1190.21 397.418 1144.33 406.063Z" fill="#026295" fill-opacity="0.03"/>
</g>
<mask id="mask16_74_3561" style="mask-type:luminance" maskUnits="userSpaceOnUse" x="-105" y="-100" width="1992" height="963">
<path d="M-104.754 215.742L1634.44 -99.5413L1886.44 546.861L147.244 862.145L-104.754 215.742Z" fill="white"/>
</mask>
<g mask="url(#mask16_74_3561)">
<path d="M1337.26 645.385C1288.98 654.143 1231.96 646.876 1189.49 622.908C1174.64 614.525 1138.52 590.103 1124.12 544.458C1111.99 506.014 1118.32 463.143 1142.92 416.503C1057.38 433.338 960.431 478.225 859.026 548.957C785.971 599.917 689.817 614.711 573.233 592.914C413.16 562.993 245.006 469.834 132.132 396.95C0.411231 311.904 -90.296 233.385 -104.196 216.48L-102.185 215.347C-72.991 250.86 273.018 534.568 573.406 590.713C689.246 612.37 784.74 597.696 857.254 547.119C939.878 489.482 1018.94 448.94 1092.25 426.608C1110.12 421.167 1127.54 416.832 1144.47 413.613C1153.39 397.147 1164.58 380.213 1178.01 362.843C1242.16 279.941 1334.66 226.111 1452.96 202.842C1553.22 183.169 1652.8 188.257 1725.55 191.997C1733.05 192.382 1740.26 192.751 1747.14 193.077L1747.37 195.323C1740.49 194.998 1733.27 194.63 1725.77 194.24C1576.84 186.589 1327.59 173.781 1180.21 364.283C1167.32 380.94 1156.52 397.182 1147.81 412.991C1147.94 412.968 1148.06 412.945 1148.19 412.922C1195.99 404.256 1239.89 404.533 1279.24 413.788C1335.49 427.007 1380.05 457.838 1411.67 505.414C1440.92 549.415 1438.55 588.909 1404.99 616.615C1387.62 630.954 1363.75 640.582 1337.26 645.385ZM1146.25 415.857C1121.09 462.744 1114.47 505.737 1126.6 544.16C1140.72 588.92 1176.09 612.853 1190.65 621.071C1255.5 657.656 1354.77 654.765 1403.09 614.87C1435.8 587.866 1438.08 549.313 1409.5 506.324C1378.3 459.395 1334.37 428.988 1278.93 415.951C1239.25 406.62 1194.6 406.722 1146.25 415.857Z" fill="#026295" fill-opacity="0.03"/>
</g>
<mask id="mask17_74_3561" style="mask-type:luminance" maskUnits="userSpaceOnUse" x="-29" y="-96" width="1839" height="691">
<path d="M-28.5496 223.939L1669.79 -95.2328L1809.88 275.825L111.546 594.997L-28.5496 223.939Z" fill="white"/>
</mask>
<g mask="url(#mask17_74_3561)">
<path d="M1323.45 367.046C1218.6 386.767 1108.55 304.67 1002.06 225.251C914.381 159.856 831.565 98.0929 758.462 98.3541C636.982 98.798 550.714 148.929 467.283 197.407C336.892 273.171 213.738 344.737 -27.2608 225.606L-26.2536 223.604C213.323 342.038 335.895 270.814 465.672 195.403C549.367 146.77 635.921 96.4803 758.1 96.0328C832.227 95.762 915.453 157.836 1003.57 223.549C1110.73 303.473 1221.58 386.224 1326.18 364.053C1396.99 349.127 1433.33 329.325 1468.46 310.177C1527.96 277.751 1584.16 247.124 1798.54 246.38L1798.9 248.701C1585.18 249.449 1529.24 279.932 1470.03 312.205C1434.74 331.433 1398.26 351.312 1327.09 366.316C1325.89 366.576 1324.66 366.818 1323.45 367.046Z" fill="#026295" fill-opacity="0.03"/>
</g>
<mask id="mask18_74_3561" style="mask-type:luminance" maskUnits="userSpaceOnUse" x="-18" y="-76" width="1831" height="679">
<path d="M-17.5603 243.703L1677.57 -75.6284L1812.61 282.812L117.483 602.143L-17.5603 243.703Z" fill="white"/>
</mask>
<g mask="url(#mask18_74_3561)">
<path d="M1320.98 374.737C1216.03 394.518 1105.77 313.159 999.089 234.445C911.539 169.848 828.85 108.834 756.415 109.64C637.962 110.557 554.077 160.786 472.96 209.36C409.507 247.352 349.521 283.273 274.471 297.415C273.477 297.602 272.498 297.781 271.496 297.964C184.89 313.533 93.4319 297.038 -16.3162 246.055L-15.3791 244.017C224.229 355.331 344.251 283.461 471.319 207.37C552.716 158.632 636.88 108.239 756.034 107.312C829.489 106.497 912.592 167.816 1000.58 232.738C1107.95 311.958 1218.99 394.004 1323.76 371.731C1395.36 356.6 1432.14 335.743 1467.72 315.57C1528 281.391 1584.95 249.098 1798.79 246.632L1799.17 248.96C1586 251.416 1529.33 283.564 1469.31 317.586C1433.59 337.843 1396.64 358.791 1324.67 374.004C1323.44 374.262 1322.21 374.505 1320.98 374.737Z" fill="#026295" fill-opacity="0.03"/>
</g>
<mask id="mask19_74_3561" style="mask-type:luminance" maskUnits="userSpaceOnUse" x="-9" y="-63" width="1825" height="673">
<path d="M-8.90942 255.932L1682.31 -62.9432L1815.34 290.413L124.114 609.288L-8.90942 255.932Z" fill="white"/>
</mask>
<g mask="url(#mask19_74_3561)">
<path d="M1318.71 382.87C1213.6 402.709 1103.09 322.152 996.168 244.222C908.871 180.601 826.42 120.509 754.71 121.599C639.674 123.358 558.351 173.467 479.718 221.934C419.715 258.92 357.661 297.166 282.045 312.074C281.125 312.254 280.188 312.436 279.267 312.61C195.36 328.443 102.44 313.488 -4.71078 266.933L-3.84459 264.862C236.081 369.106 353.616 296.656 478.059 219.956C556.963 171.321 638.558 121.028 754.319 119.272C827.045 118.161 909.908 178.555 997.635 242.494C1105.27 320.941 1216.55 402.107 1321.52 379.85C1393.83 364.553 1431.04 342.658 1467.02 321.488C1528.06 285.568 1585.71 251.645 1799.04 247.515L1799.45 249.845C1586.79 253.958 1529.4 287.733 1468.64 323.488C1432.5 344.75 1395.13 366.742 1322.43 382.123C1321.2 382.384 1319.95 382.637 1318.71 382.87Z" fill="#026295" fill-opacity="0.03"/>
</g>
<mask id="mask20_74_3561" style="mask-type:luminance" maskUnits="userSpaceOnUse" x="-3" y="-52" width="1821" height="668">
<path d="M-2.10278 267.305L1686.67 -51.4112L1817.67 296.873L128.9 615.589L-2.10278 267.305Z" fill="white"/>
</mask>
<g mask="url(#mask20_74_3561)">
<path d="M1316.49 391.11C1211.28 410.978 1100.57 331.27 993.449 254.151C906.353 191.452 824.089 132.229 753.083 133.735C641.335 136.102 562.56 186.132 486.378 234.516C427.856 271.684 367.347 310.123 292.599 326.213C208.798 344.247 115.4 331.747 7.05424 287.932L7.84735 285.825C247.949 382.912 368.303 306.477 484.689 232.554C561.148 184.001 640.197 133.792 752.668 131.405C824.689 129.88 907.366 189.403 994.904 252.419C1101.48 329.141 1211.66 408.452 1315.64 388.823C1316.87 388.591 1318.09 388.343 1319.33 388.083C1392.26 372.64 1429.89 349.713 1466.27 327.544C1525.32 291.549 1586.38 254.335 1799.29 248.558L1799.72 250.891C1587.5 256.643 1526.71 293.696 1467.92 329.528C1431.37 351.796 1393.58 374.827 1320.24 390.358C1318.99 390.621 1317.74 390.875 1316.49 391.11Z" fill="#026295" fill-opacity="0.03"/>
</g>
<mask id="mask21_74_3561" style="mask-type:luminance" maskUnits="userSpaceOnUse" x="6" y="-40" width="1815" height="663">
<path d="M6.16113 278.28L1690.92 -39.8793L1820.41 304.575L135.65 622.734L6.16113 278.28Z" fill="white"/>
</mask>
<g mask="url(#mask21_74_3561)">
<path d="M1314.26 399.354C1208.97 419.251 1098.06 340.394 990.763 264.106C903.853 202.321 821.766 143.96 751.465 145.882C643.035 148.84 566.825 198.772 493.107 247.053C378.76 321.953 260.524 399.403 18.8287 308.946L19.5414 306.813C259.877 396.759 377.57 319.663 491.394 245.106C565.38 196.646 641.893 146.535 751.031 143.548C822.352 141.601 904.854 200.256 992.2 262.354C1098.97 338.259 1209.34 416.726 1313.42 397.065C1314.66 396.83 1315.89 396.581 1317.14 396.317C1390.66 380.742 1428.69 356.779 1465.45 333.599C1525.2 295.939 1586.97 257.01 1799.55 249.598L1800 251.928C1588.12 259.32 1526.62 298.08 1467.14 335.568C1430.2 358.853 1392 382.927 1318.05 398.593C1316.79 398.859 1315.53 399.115 1314.26 399.354Z" fill="#026295" fill-opacity="0.03"/>
</g>
<mask id="mask22_74_3561" style="mask-type:luminance" maskUnits="userSpaceOnUse" x="14" y="-29" width="1810" height="659">
<path d="M14.4216 289.258L1695.16 -28.3471L1823.13 312.275L142.396 629.88L14.4216 289.258Z" fill="white"/>
</mask>
<g mask="url(#mask22_74_3561)">
<path d="M1312.03 407.599C1206.67 427.525 1095.57 349.529 988.083 274.075C901.357 213.188 819.44 155.685 749.829 158.032C644.779 161.582 574.404 209.154 499.904 259.527C388.136 335.104 272.558 413.255 30.6021 329.974L31.2361 327.805C271.845 410.623 386.9 332.832 498.161 257.596C569.659 209.255 643.588 159.274 749.39 155.698C820.013 153.322 902.34 211.12 989.51 272.313C1096.46 347.39 1207.03 425 1311.19 405.309C1312.45 405.07 1313.69 404.824 1314.95 404.553C1389.01 388.853 1425.72 364.958 1464.59 339.658C1525.01 300.327 1587.48 259.656 1799.8 250.626L1800.28 252.958C1588.67 261.965 1526.46 302.447 1466.3 341.607C1427.25 367.025 1390.36 391.036 1315.87 406.83C1314.59 407.104 1313.31 407.358 1312.03 407.599Z" fill="#026295" fill-opacity="0.03"/>
</g>
<mask id="mask23_74_3561" style="mask-type:luminance" maskUnits="userSpaceOnUse" x="22" y="-17" width="1804" height="653">
<path d="M22.6841 300.348L1699.52 -16.815L1825.47 318.71L148.639 635.872L22.6841 300.348Z" fill="white"/>
</mask>
<g mask="url(#mask23_74_3561)">
<path d="M1309.81 415.852C1204.37 435.817 1093.1 358.681 985.44 284.065C898.889 224.081 817.139 167.417 748.212 170.2C646.551 174.302 578.653 221.734 506.773 271.941C445.146 314.994 382.311 358.877 295.737 375.261C228.902 387.911 147.929 384.171 42.3857 351.017L42.9374 348.818C283.877 424.509 396.292 345.975 505.008 270.029C577.176 219.617 645.354 172.005 747.749 167.864C817.684 165.04 899.853 221.993 986.845 282.29C1095.28 357.444 1207.35 435.068 1312.76 412.797C1387.31 396.984 1424.4 372.088 1463.67 345.723C1524.75 304.711 1587.93 262.307 1800.06 251.663L1800.55 253.994C1589.12 264.6 1526.23 306.822 1465.4 347.662C1425.95 374.146 1388.68 399.164 1313.68 415.076C1312.39 415.352 1311.09 415.609 1309.81 415.852Z" fill="#026295" fill-opacity="0.03"/>
</g>
<mask id="mask24_74_3561" style="mask-type:luminance" maskUnits="userSpaceOnUse" x="30" y="-6" width="1799" height="650">
<path d="M30.9463 311.33L1703.76 -5.28311L1828.2 326.405L155.386 643.018L30.9463 311.33Z" fill="white"/>
</mask>
<g mask="url(#mask24_74_3561)">
<path d="M1307.58 424.106C1202.07 444.088 1090.64 367.838 982.813 294.065C896.421 234.963 814.834 179.138 746.585 182.361C648.364 187.005 582.949 234.251 513.714 284.277C407.07 361.33 296.795 441 54.1601 372.07L54.6314 369.846C295.963 438.415 405.752 359.094 511.92 282.381C581.443 232.15 647.118 184.704 746.099 180.028C815.361 176.759 897.373 232.871 984.207 292.273C1091.5 365.684 1202.42 441.564 1306.73 421.814C1308.01 421.571 1309.29 421.313 1310.57 421.043C1385.56 405.116 1423.03 379.215 1462.69 351.789C1524.45 309.083 1588.31 264.923 1800.31 252.679L1800.82 255.011C1589.52 267.218 1525.94 311.186 1464.45 353.709C1424.6 381.265 1386.96 407.294 1311.48 423.317C1310.19 423.596 1308.88 423.86 1307.58 424.106Z" fill="#026295" fill-opacity="0.03"/>
</g>
<mask id="mask25_74_3561" style="mask-type:luminance" maskUnits="userSpaceOnUse" x="39" y="6" width="1792" height="645">
<path d="M39.208 322.314L1708 6.24915L1830.93 334.098L162.134 650.163L39.208 322.314Z" fill="white"/>
</mask>
<g mask="url(#mask25_74_3561)">
<path d="M1305.34 432.355C1199.78 452.366 1088.19 376.996 980.21 304.082C893.98 245.852 812.532 190.856 744.955 194.535C650.187 199.686 587.305 246.731 520.73 296.534C469.544 334.821 416.616 374.42 346.106 396.72C266.318 421.944 174.684 420.773 65.939 393.14L66.3261 390.897C308.132 452.342 415.285 372.179 518.911 294.654C585.766 244.641 648.915 197.395 744.451 192.199C813.039 188.467 894.912 243.752 981.589 302.281C1089.04 374.838 1200.11 449.838 1304.5 430.06C1305.8 429.814 1307.08 429.559 1308.37 429.281C1383.79 413.256 1421.63 386.345 1461.68 357.846C1524.1 313.45 1588.63 267.536 1800.57 253.694L1801.1 256.023C1589.87 269.822 1525.61 315.539 1463.47 359.756C1423.22 388.392 1385.2 415.434 1309.29 431.562C1307.98 431.838 1306.65 432.106 1305.34 432.355Z" fill="#026295" fill-opacity="0.03"/>
</g>
<mask id="mask26_74_3561" style="mask-type:luminance" maskUnits="userSpaceOnUse" x="47" y="17" width="1787" height="640">
<path d="M47.4692 333.415L1712.36 17.781L1833.27 340.522L168.374 656.155L47.4692 333.415Z" fill="white"/>
</mask>
<g mask="url(#mask26_74_3561)">
<path d="M1303.1 440.608C1197.51 460.642 1085.76 386.164 977.63 314.113C891.548 256.749 810.241 202.57 743.326 206.709C652.059 212.369 591.711 259.151 527.82 308.693C478.088 347.257 426.663 387.141 356.973 410.74C277.98 437.493 186.637 438.63 77.7279 414.221L78.0291 411.954C320.368 466.279 424.891 385.223 525.975 306.838C590.147 257.071 650.757 210.077 742.805 204.375C810.721 200.174 892.459 254.64 978.995 312.303C1087.94 384.902 1200.64 460.003 1306.18 437.525C1381.98 421.41 1420.18 393.481 1460.63 363.91C1523.69 317.807 1588.89 270.132 1800.82 254.696L1801.37 257.024C1590.17 272.413 1525.23 319.886 1462.43 365.806C1421.79 395.515 1383.4 423.586 1307.09 439.808C1305.77 440.092 1304.43 440.357 1303.1 440.608Z" fill="#026295" fill-opacity="0.03"/>
</g>
<mask id="mask27_74_3561" style="mask-type:luminance" maskUnits="userSpaceOnUse" x="54" y="29" width="1782" height="635">
<path d="M54.2771 344.7L1716.61 29.313L1836 348.223L173.666 663.61L54.2771 344.7Z" fill="white"/>
</mask>
<g mask="url(#mask27_74_3561)">
<path d="M1300.87 448.869C1195.24 468.92 1083.34 395.345 975.087 324.166C889.135 267.654 807.95 214.275 741.696 218.891C653.973 225.007 596.168 271.513 534.988 320.754C474.89 369.124 409.669 421.605 307.122 441.07C248.691 452.163 178.151 452.529 89.5077 435.314L89.7247 433.029C332.707 480.227 439.172 394.522 533.11 318.921C594.576 269.454 652.627 222.722 741.148 216.561C808.412 211.875 890.024 265.531 976.43 322.342C1085.53 394.075 1198.45 468.272 1303.98 445.773C1380.15 429.571 1418.71 400.624 1459.54 369.98C1520.28 324.396 1589.12 272.719 1801.07 255.692L1801.65 258.022C1590.42 274.997 1521.86 326.453 1461.37 371.861C1420.33 402.656 1381.58 431.74 1304.89 448.056C1303.56 448.343 1302.21 448.615 1300.87 448.869Z" fill="#026295" fill-opacity="0.03"/>
</g>
<mask id="mask28_74_3561" style="mask-type:luminance" maskUnits="userSpaceOnUse" x="62" y="39" width="1777" height="631">
<path d="M62.1492 354.539L1720.46 39.6919L1838.33 354.755L180.023 669.602L62.1492 354.539Z" fill="white"/>
</mask>
<g mask="url(#mask28_74_3561)">
<path d="M1298.64 457.127C1192.98 477.198 1080.96 404.527 972.569 334.229C886.737 278.561 805.666 225.978 740.068 231.084C655.896 237.628 600.69 283.813 542.234 332.705C450.355 409.563 346.207 496.672 101.296 456.427L101.423 454.124C345.132 494.167 448.839 407.432 540.328 330.894C599.06 281.765 654.552 235.38 739.501 228.75C806.112 223.564 887.611 276.429 973.902 332.394C1081.77 402.358 1193.27 474.679 1297.79 454.83C1299.13 454.576 1300.45 454.308 1301.79 454.021C1378.29 437.733 1417.22 407.771 1458.43 376.048C1519.78 328.825 1589.31 275.293 1801.34 256.686L1801.93 259.014C1590.63 277.567 1521.38 330.878 1460.28 377.915C1418.86 409.795 1379.74 439.904 1302.7 456.31C1301.35 456.601 1299.99 456.871 1298.64 457.127Z" fill="#026295" fill-opacity="0.03"/>
</g>
<mask id="mask29_74_3561" style="mask-type:luminance" maskUnits="userSpaceOnUse" x="70" y="51" width="1772" height="626">
<path d="M70.4106 365.534L1724.7 51.2239L1841.06 362.438L186.77 676.747L70.4106 365.534Z" fill="white"/>
</mask>
<g mask="url(#mask29_74_3561)">
<path d="M1296.56 465.358C1190.72 485.478 1073.59 410.531 970.09 344.311C884.365 289.469 803.397 237.669 738.435 243.28C657.871 250.252 605.259 296.039 549.561 344.536C489.053 397.211 423.07 454.644 310.575 476.029C256.847 486.246 192.515 488.233 113.083 477.551L113.123 475.235C357.68 508.113 458.588 420.261 547.621 342.747C603.597 294.013 656.465 247.982 737.846 240.949C803.811 235.248 885.213 287.329 971.396 342.465C1080.78 412.441 1193.86 484.871 1299.58 462.28C1376.41 445.908 1415.7 414.927 1457.29 382.128C1519.25 333.257 1589.47 277.879 1801.59 257.676L1802.21 260.007C1590.8 280.121 1520.86 335.298 1459.14 383.972C1417.35 416.938 1377.87 448.079 1300.5 464.565C1299.19 464.836 1297.87 465.109 1296.56 465.358Z" fill="#026295" fill-opacity="0.03"/>
</g>
<mask id="mask30_74_3561" style="mask-type:luminance" maskUnits="userSpaceOnUse" x="78" y="62" width="1766" height="622">
<path d="M78.6741 376.531L1728.95 62.756L1843.79 370.118L193.518 683.893L78.6741 376.531Z" fill="white"/>
</mask>
<g mask="url(#mask30_74_3561)">
<path d="M1294.32 473.622C1188.48 493.757 1071.24 419.774 967.639 354.41C882.006 300.386 801.124 249.355 736.805 255.488C659.881 262.815 612.176 306.107 556.955 356.225C496.28 411.29 429.929 471.494 311.465 494.031C260.255 503.771 199.324 506.474 124.877 498.684L124.83 496.361C370.346 522.034 468.443 433.014 554.986 354.469C608.191 306.177 658.447 260.582 736.191 253.155C801.518 246.926 882.844 298.23 968.942 352.552C1073.34 418.42 1191.62 493.15 1297.38 470.534C1374.5 454.088 1414.15 422.082 1456.12 388.196C1518.68 337.683 1589.59 280.431 1801.86 258.657L1802.49 260.987C1590.95 282.677 1520.31 339.715 1457.99 390.031C1415.81 424.091 1375.97 456.258 1298.3 472.821C1296.98 473.099 1295.64 473.371 1294.32 473.622Z" fill="#026295" fill-opacity="0.03"/>
</g>
<mask id="mask31_74_3561" style="mask-type:luminance" maskUnits="userSpaceOnUse" x="86" y="74" width="1761" height="616">
<path d="M86.9346 387.649L1733.31 74.2879L1846.13 376.524L199.758 689.885L86.9346 387.649Z" fill="white"/>
</mask>
<g mask="url(#mask31_74_3561)">
<path d="M1292.08 481.89C1186.27 502.042 1068.92 429.029 965.233 364.524C879.672 311.3 798.858 261.022 735.166 267.701C661.897 275.386 616.725 318.199 564.418 367.775C523.963 406.12 478.105 449.585 412.458 480.13C337.282 515.108 247.073 528.105 136.672 519.844L136.538 517.509C383.16 535.946 478.394 445.686 562.417 366.047C615.011 316.192 660.443 273.145 734.531 265.371C799.225 258.585 880.478 309.138 966.507 362.653C1071.01 427.663 1189.5 501.466 1295.18 478.793C1372.58 462.277 1412.58 429.25 1454.92 394.277C1518.08 342.109 1589.66 282.984 1802.11 259.633L1802.77 261.965C1591.04 285.233 1519.73 344.133 1456.82 396.098C1414.26 431.246 1374.06 464.444 1296.09 481.082C1294.76 481.363 1293.42 481.635 1292.08 481.89Z" fill="#026295" fill-opacity="0.03"/>
</g>
<mask id="mask32_74_3561" style="mask-type:luminance" maskUnits="userSpaceOnUse" x="94" y="84" width="1755" height="614">
<path d="M94.8074 397.379L1737.05 84.6666L1848.86 384.318L206.622 697.03L94.8074 397.379Z" fill="white"/>
</mask>
<g mask="url(#mask32_74_3561)">
<path d="M1289.84 490.158C1184.06 510.32 1066.63 438.291 962.864 374.649C877.358 322.207 796.596 272.679 733.539 279.921C663.969 287.951 621.318 330.202 571.944 379.159C532.905 417.879 488.653 461.756 423.815 493.791C349.396 530.556 259.328 546 148.465 541.013L148.242 538.665C396.115 549.821 492.479 454.248 569.912 377.458C619.574 328.211 662.454 285.642 732.876 277.596C796.944 270.234 878.149 320.035 964.122 372.763C1067.4 436.106 1184.3 507.799 1288.99 487.857C1290.32 487.603 1291.65 487.333 1292.98 487.052C1370.64 470.467 1410.99 436.408 1453.7 400.352C1517.46 346.523 1589.71 285.532 1802.38 260.597L1803.05 262.932C1591.14 287.77 1519.14 348.544 1455.62 402.16C1412.69 438.402 1372.14 472.634 1293.89 489.341C1292.55 489.626 1291.19 489.902 1289.84 490.158Z" fill="#026295" fill-opacity="0.03"/>
</g>
<mask id="mask33_74_3561" style="mask-type:luminance" maskUnits="userSpaceOnUse" x="101" y="96" width="1751" height="609">
<path d="M101.613 408.68L1741.29 96.199L1851.59 392.004L211.911 704.485L101.613 408.68Z" fill="white"/>
</mask>
<g mask="url(#mask33_74_3561)">
<path d="M1287.6 498.429C1181.86 518.597 1064.37 447.55 960.527 384.777C875.059 333.111 794.328 284.305 731.906 292.144C666.049 300.408 625.944 342.098 579.523 390.37C521.201 451.015 451.809 523.158 306.989 550.772C264.953 558.785 216.576 563.045 160.246 562.189L159.945 559.838C409.23 563.634 502.51 466.638 577.454 388.697C624.161 340.13 664.517 298.213 731.213 289.817C794.655 281.851 875.83 330.93 961.772 382.888C1066.46 446.166 1185.1 517.901 1290.77 495.314C1368.68 478.664 1409.38 443.576 1452.47 406.426C1516.82 350.943 1589.77 288.064 1802.64 261.56L1803.33 263.887C1591.19 290.297 1518.52 352.945 1454.4 408.22C1411.09 445.563 1370.19 480.824 1291.69 497.604C1290.33 497.891 1288.96 498.169 1287.6 498.429Z" fill="#026295" fill-opacity="0.03"/>
</g>
<mask id="mask34_74_3561" style="mask-type:luminance" maskUnits="userSpaceOnUse" x="109" y="107" width="1745" height="604">
<path d="M109.875 419.81L1745.65 107.731L1853.93 398.399L218.151 710.477L109.875 419.81Z" fill="white"/>
</mask>
<g mask="url(#mask34_74_3561)">
<path d="M1285.35 506.702C1179.68 526.874 1062.13 456.819 958.252 394.928C872.794 344.008 792.077 295.911 730.269 304.375C668.136 312.883 630.601 353.894 587.147 401.387C528.88 465.078 459.155 541.255 304.033 570.862C265.636 578.187 222.036 582.655 172.043 583.378L171.655 581.031C422.529 577.396 512.64 478.897 585.045 399.754C628.779 351.95 666.559 310.645 729.542 302.053C792.367 293.452 873.537 341.816 959.478 393.018C1064.22 455.429 1182.91 526.185 1288.57 503.578C1366.71 486.866 1405.87 452.404 1451.21 412.504C1516.16 355.357 1589.75 290.574 1802.9 262.517L1803.61 264.843C1591.22 292.821 1517.87 357.351 1453.15 414.29C1409.47 452.725 1368.22 489.026 1289.48 505.87C1288.11 506.159 1286.72 506.441 1285.35 506.702Z" fill="#026295" fill-opacity="0.03"/>
</g>
<mask id="mask35_74_3561" style="mask-type:luminance" maskUnits="userSpaceOnUse" x="117" y="118" width="1740" height="600">
<path d="M117.748 429.543L1749.39 118.11L1856.65 406.189L225.015 717.622L117.748 429.543Z" fill="white"/>
</mask>
<g mask="url(#mask35_74_3561)">
<path d="M1283.11 514.981C1177.52 535.148 1059.94 466.098 956.022 405.083C870.552 354.9 789.819 307.496 728.632 316.616C670.205 325.255 635.274 365.579 594.806 412.21C536.678 479.18 466.731 559.745 299.692 591.645C265.406 598.192 227.046 602.69 183.845 604.597L183.367 602.249C436.04 591.085 522.886 491.021 592.677 410.615C633.425 363.673 668.599 323.212 727.881 314.292C790.088 305.028 871.28 352.697 957.234 403.164C1062.03 464.696 1180.74 534.415 1286.37 511.842C1364.72 495.075 1404.21 459.628 1449.95 418.586C1515.48 359.767 1589.76 293.082 1803.18 263.464L1803.9 265.788C1591.23 295.32 1517.21 361.752 1451.9 420.36C1405.95 461.607 1366.25 497.235 1287.27 514.136C1285.9 514.433 1284.5 514.717 1283.11 514.981Z" fill="#026295" fill-opacity="0.03"/>
</g>
<mask id="mask36_74_3561" style="mask-type:luminance" maskUnits="userSpaceOnUse" x="126" y="129" width="1734" height="596">
<path d="M126.009 440.556L1753.63 129.642L1859.38 413.854L231.761 724.768L126.009 440.556Z" fill="white"/>
</mask>
<g mask="url(#mask36_74_3561)">
<path d="M1280.86 523.26C1175.4 543.414 1057.78 475.367 953.844 415.24C868.335 365.771 787.562 319.049 726.996 328.86C672.406 337.732 641.502 375.269 602.473 422.813C569.343 463.159 531.796 508.894 470.251 547.276C398.959 591.739 309.126 617.433 195.629 625.814L195.077 623.473C449.72 604.649 533.217 502.968 600.299 421.259C638.06 375.259 670.681 335.61 726.212 326.542C787.796 316.563 869.029 363.557 955.03 413.314C1058.5 473.169 1175.59 540.908 1280.01 520.954C1281.4 520.69 1282.77 520.41 1284.15 520.113C1362.72 503.287 1402.54 466.857 1448.65 424.669C1514.78 364.171 1589.73 295.597 1803.43 264.404L1804.18 266.725C1591.2 297.835 1516.52 366.151 1450.62 426.43C1404.28 468.831 1364.25 505.446 1285.06 522.408C1283.67 522.707 1282.27 522.991 1280.86 523.26Z" fill="#026295" fill-opacity="0.03"/>
</g>
<mask id="mask37_74_3561" style="mask-type:luminance" maskUnits="userSpaceOnUse" x="133" y="140" width="1729" height="591">
<path d="M133.881 450.418L1757.48 140.02L1861.72 420.363L238.118 730.76L133.881 450.418Z" fill="white"/>
</mask>
<g mask="url(#mask37_74_3561)">
<path d="M1278.62 531.535C1173.29 551.685 1055.66 484.645 951.723 425.408C866.142 376.632 785.3 330.558 725.361 341.112C724.747 341.218 724.13 341.336 723.525 341.452C673.743 350.972 645.624 387.313 610.135 433.186C555.455 503.858 482.659 597.9 283.274 636.042C259.798 640.531 234.591 644.24 207.426 647.056L206.797 644.717C463.664 618.125 547.049 510.36 607.928 431.672C644.132 384.881 672.729 347.854 724.544 338.798C785.507 328.065 866.815 374.404 952.898 423.466C1056.37 482.434 1173.48 549.177 1277.77 529.233C1279.17 528.965 1280.55 528.679 1281.94 528.384C1360.71 511.503 1400.86 474.084 1447.36 430.748C1514.07 368.576 1589.68 298.115 1803.7 265.331L1804.47 267.655C1591.17 300.341 1515.82 370.541 1449.34 432.502C1402.61 476.05 1362.25 513.66 1282.86 530.674C1281.45 530.977 1280.03 531.265 1278.62 531.535Z" fill="#026295" fill-opacity="0.03"/>
</g>
<mask id="mask38_74_3561" style="mask-type:luminance" maskUnits="userSpaceOnUse" x="142" y="151" width="1723" height="587">
<path d="M142.142 461.436L1761.73 151.553L1864.45 428.023L244.864 737.906L142.142 461.436Z" fill="white"/>
</mask>
<g mask="url(#mask38_74_3561)">
<path d="M1276.37 539.817C1171.2 559.952 1053.59 493.918 949.667 435.573C863.973 387.458 783.036 342.017 723.728 353.368C676.522 362.403 650.594 398.11 617.765 443.315C559.432 523.64 479.57 633.686 219.218 668.307L218.514 665.976C477.842 631.444 557.423 521.868 615.528 441.85C648.625 396.268 674.768 360.267 722.871 351.061C783.21 339.512 864.625 385.222 950.825 433.615C1055.69 492.485 1174.57 559.335 1279.74 536.651C1358.68 519.722 1399.17 481.313 1446.04 436.834C1513.35 372.978 1589.63 300.623 1803.98 266.26L1804.75 268.582C1591.11 302.761 1515.12 374.93 1448.04 438.568C1400.93 483.272 1360.24 521.878 1280.65 538.948C1279.23 539.254 1277.8 539.544 1276.37 539.817Z" fill="#026295" fill-opacity="0.03"/>
</g>
</svg>
