<svg width="32" height="32" viewBox="0 0 32 32" fill="none" xmlns="http://www.w3.org/2000/svg">
<path fill-rule="evenodd" clip-rule="evenodd" d="M16.794 3.41081C16.3022 3.12973 15.6983 3.12973 15.2064 3.41081L4.0064 9.81081C3.23917 10.2492 2.97262 11.2266 3.41104 11.9938C3.70605 12.5101 4.2451 12.7997 4.79995 12.8003V24C3.9163 24 3.19995 24.7163 3.19995 25.6C3.19995 26.4837 3.9163 27.2 4.79995 27.2H27.2C28.0836 27.2 28.8 26.4837 28.8 25.6C28.8 24.7163 28.0836 24 27.2 24V12.8003C27.755 12.7998 28.2943 12.5103 28.5894 11.9938C29.0278 11.2266 28.7613 10.2492 27.994 9.81081L16.794 3.41081ZM9.59995 14.4C8.7163 14.4 7.99995 15.1163 7.99995 16V20.8C7.99995 21.6837 8.7163 22.4 9.59995 22.4C10.4836 22.4 11.2 21.6837 11.2 20.8V16C11.2 15.1163 10.4836 14.4 9.59995 14.4ZM14.4 16C14.4 15.1163 15.1163 14.4 16 14.4C16.8836 14.4 17.6 15.1163 17.6 16V20.8C17.6 21.6837 16.8836 22.4 16 22.4C15.1163 22.4 14.4 21.6837 14.4 20.8V16ZM22.4 14.4C21.5163 14.4 20.8 15.1163 20.8 16V20.8C20.8 21.6837 21.5163 22.4 22.4 22.4C23.2836 22.4 24 21.6837 24 20.8V16C24 15.1163 23.2836 14.4 22.4 14.4Z" fill="#026295"/>
</svg>
