<svg width="32" height="32" viewBox="0 0 32 32" fill="none" xmlns="http://www.w3.org/2000/svg">
<path fill-rule="evenodd" clip-rule="evenodd" d="M9.33166 4.46791C9.95484 4.11107 10.6922 4.13196 11.2937 4.42536C14.2387 5.86204 17.7654 5.86353 20.7117 4.42939C21.3199 4.13333 22.0664 4.11608 22.6925 4.48379L27.3143 7.19822C27.7339 7.45151 27.9982 7.91563 27.9997 8.40678L27.9998 8.40875C28.0019 16.3476 23.6397 23.8412 16.7655 27.7956C16.2963 28.0653 15.7035 28.0654 15.2344 27.7958C8.33829 23.8288 3.97212 16.3011 3.99989 8.33722C4.00147 7.84607 4.26576 7.38199 4.68534 7.1287L4.69852 7.12074L9.33166 4.46791ZM14.2499 11.75C14.2499 11.2064 14.2499 10.9346 14.3387 10.7202C14.4571 10.4343 14.6843 10.2072 14.9701 10.0888C15.1845 10 15.4563 10 15.9999 10C16.5435 10 16.8153 10 17.0297 10.0888C17.3156 10.2072 17.5427 10.4343 17.6611 10.7202C17.7499 10.9346 17.7499 11.2064 17.7499 11.75V12.8607C17.7499 12.8871 17.7499 12.9003 17.7581 12.9085C17.7663 12.9167 17.7795 12.9167 17.8059 12.9167H18.9166C19.4602 12.9167 19.732 12.9167 19.9464 13.0055C20.2322 13.1239 20.4594 13.351 20.5778 13.6369C20.6666 13.8513 20.6666 14.1231 20.6666 14.6667C20.6666 15.2103 20.6666 15.4821 20.5778 15.6965C20.4594 15.9823 20.2322 16.2095 19.9464 16.3279C19.732 16.4167 19.4602 16.4167 18.9166 16.4167H17.8059C17.7795 16.4167 17.7663 16.4167 17.7581 16.4249C17.7499 16.4331 17.7499 16.4463 17.7499 16.4727V17.5833C17.7499 18.1269 17.7499 18.3987 17.6611 18.6131C17.5427 18.899 17.3156 19.1261 17.0297 19.2445C16.8153 19.3333 16.5435 19.3333 15.9999 19.3333C15.4563 19.3333 15.1845 19.3333 14.9701 19.2445C14.6843 19.1261 14.4571 18.899 14.3387 18.6131C14.2499 18.3987 14.2499 18.1269 14.2499 17.5833V16.4727C14.2499 16.4463 14.2499 16.4331 14.2417 16.4249C14.2335 16.4167 14.2203 16.4167 14.1939 16.4167H13.0833C12.5397 16.4167 12.2679 16.4167 12.0535 16.3279C11.7676 16.2095 11.5405 15.9823 11.4221 15.6965C11.3333 15.4821 11.3333 15.2103 11.3333 14.6667C11.3333 14.1231 11.3333 13.8513 11.4221 13.6369C11.5405 13.351 11.7676 13.1239 12.0535 13.0055C12.2679 12.9167 12.5397 12.9167 13.0833 12.9167H14.1939C14.2203 12.9167 14.2335 12.9167 14.2417 12.9085C14.2499 12.9003 14.2499 12.8871 14.2499 12.8607V11.75Z" fill="#026295"/>
</svg>
